#!OML:ASF H:\charlestonDancing\Project 1\Capture day 1\Session 1\femaleDancer.ASF
:FULLY-SPECIFIED
:DEGREES
459
root -1.5751 17.7279 -2.63768 362.843 -85.6896 -367.836
lowerback 1.17678 -0.445668 2.5621
upperback -4.60262 -0.550038 0.187706
thorax -5.44436 -0.408319 -1.20518
lowerneck 0.430775 -4.75146 -0.727822
upperneck -2.09327 -6.30005 5.59719
head -0.507121 -3.20701 1.88726
rclavicle -4.67144e-015 -1.98785e-016
rhumerus -35.044 8.58822 -85.6972
rradius 26.2056
rwrist 25.7987
rhand -23.3145 -28.9769
rfingers 7.12502
rthumb 3.13936 -58.9336
lclavicle -4.67144e-015 -1.98785e-016
lhumerus -46.28 15.7644 16.7504
lradius 136.508
lwrist -2.75228
lhand 9.37535 -2.65883
lfingers 7.12502
lthumb 34.5336 24.0049
rfemur -0.287532 4.0154 23.3349
rtibia 31.7027
rfoot -22.6391 -7.10651
rtoes -15.7534
lfemur 4.54845 -0.490344 -23.9053
ltibia 28.2314
lfoot -11.4917 -17.6446
ltoes 0.546915
460
root -1.6164 17.7127 -2.65521 360.836 -86.0476 -366.308
lowerback 1.18293 -0.426366 2.46005
upperback -4.59964 -0.52996 0.146642
thorax -5.44292 -0.394788 -1.1918
lowerneck 0.518223 -4.73078 -0.762876
upperneck -2.17408 -6.2685 5.51849
head -0.549541 -3.19235 1.87265
rclavicle 3.52843e-015 -1.05356e-014
rhumerus -34.7733 9.74093 -86.3854
rradius 26.7567
rwrist 25.3742
rhand -23.0465 -29.3961
rfingers 7.12502
rthumb 3.39817 -59.3488
lclavicle 3.52843e-015 -1.05356e-014
lhumerus -46.8911 15.6491 16.2423
lradius 136.771
lwrist -2.35261
lhand 9.32535 -2.35536
lfingers 7.12502
lthumb 34.4862 24.3191
rfemur 0.270028 4.20282 23.3205
rtibia 31.9526
rfoot -22.6581 -7.17549
rtoes -17.0917
lfemur 5.23921 -0.723528 -24.1314
ltibia 28.3105
lfoot -11.7638 -17.2496
ltoes 0.0793698
461
root -1.65705 17.7015 -2.67768 364.201 -86.4268 -370.132
lowerback 1.18273 -0.3874 2.63071
upperback -4.55844 -0.466985 0.239808
thorax -5.3982 -0.367673 -1.1948
lowerneck 0.564681 -4.74304 -0.912891
upperneck -2.29422 -6.28047 5.51797
head -0.589886 -3.19917 1.90233
rclavicle 6.06293e-015 1.0138e-014
rhumerus -34.4033 10.7902 -86.9607
rradius 27.3893
rwrist 25.0345
rhand -22.9257 -30.0713
rfingers 7.12502
rthumb 3.51487 -60.0221
lclavicle 6.06293e-015 1.0138e-014
lhumerus -47.4577 15.4432 15.989
lradius 137.01
lwrist -2.0663
lhand 9.26276 -2.32054
lfingers 7.12502
lthumb 34.4268 24.3675
rfemur 0.788165 4.32064 23.6806
rtibia 32.1311
rfoot -22.4844 -7.04379
rtoes -17.5867
lfemur 5.88672 -0.990782 -23.968
ltibia 28.3864
lfoot -11.9659 -16.8371
ltoes -0.0418724
462
root -1.69567 17.6927 -2.70486 368.235 -86.7541 -374.661
lowerback 1.28589 -0.339984 2.75903
upperback -4.50918 -0.390919 0.319614
thorax -5.40314 -0.332608 -1.18809
lowerneck 0.636463 -4.79399 -0.94082
upperneck -2.45957 -6.34195 5.42706
head -0.653506 -3.2317 1.88409
rclavicle -2.93207e-015 1.80894e-014
rhumerus -34.0339 11.6378 -87.4728
rradius 27.853
rwrist 25.1571
rhand -23.1799 -30.3978
rfingers 7.12502
rthumb 3.26933 -60.3525
lclavicle -2.93207e-015 1.80894e-014
lhumerus -47.8423 15.1714 15.9018
lradius 137.129
lwrist -1.96016
lhand 9.22289 -2.48579
lfingers 7.12502
lthumb 34.3889 24.2108
rfemur 1.34341 4.35199 24.045
rtibia 32.2434
rfoot -22.5625 -6.38149
rtoes -14.2745
lfemur 6.55027 -1.08971 -23.7453
ltibia 28.4535
lfoot -12.068 -16.5428
ltoes -0.193307
463
root -1.73101 17.6889 -2.73202 371.921 -86.998 -378.716
lowerback 1.30455 -0.316062 2.84618
upperback -4.49954 -0.353295 0.357576
thorax -5.40279 -0.316753 -1.19972
lowerneck 0.902392 -4.9683 -0.748772
upperneck -2.78373 -6.56082 5.09039
head -0.809294 -3.34609 1.76101
rclavicle 7.55382e-015 -3.18055e-015
rhumerus -33.6767 12.4684 -88.0588
rradius 28.3121
rwrist 24.8941
rhand -23.473 -30.1515
rfingers 7.12502
rthumb 2.9863 -60.1103
lclavicle 7.55382e-015 -3.18055e-015
lhumerus -48.146 14.8834 15.8843
lradius 137.224
lwrist -2.02323
lhand 9.21866 -2.61757
lfingers 7.12502
lthumb 34.3849 24.0799
rfemur 1.76908 4.21541 24.2918
rtibia 32.3299
rfoot -22.476 -6.09714
rtoes -15.2683
lfemur 7.06844 -1.08088 -23.5339
ltibia 28.5202
lfoot -12.0533 -16.3954
ltoes 0.158953
464
root -1.76519 17.689 -2.75564 375.496 -87.2266 -382.445
lowerback 1.08535 -0.289944 2.94751
upperback -4.53128 -0.32423 0.356523
thorax -5.31055 -0.306989 -1.26023
lowerneck 1.27362 -5.23379 -0.681442
upperneck -3.12811 -6.90191 4.88896
head -0.978776 -3.52277 1.7091
rclavicle -6.41081e-015 -2.28602e-014
rhumerus -33.2689 13.4136 -88.7252
rradius 28.908
rwrist 23.9797
rhand -23.5118 -29.6843
rfingers 7.12502
rthumb 2.94886 -59.6437
lclavicle -6.41081e-015 -2.28602e-014
lhumerus -48.4205 14.6489 15.9219
lradius 137.334
lwrist -2.36611
lhand 9.37887 -2.8168
lfingers 7.12502
lthumb 34.537 23.8461
rfemur 1.94848 3.95944 24.382
rtibia 32.4277
rfoot -22.3713 -5.50557
rtoes -15.7193
lfemur 7.36207 -1.12462 -23.4117
ltibia 28.5904
lfoot -12.135 -16.1396
ltoes 0.258806
